<?xml version="1.0" encoding="UTF-8" standalone="no"?>
<svg
   xmlns:dc="http://purl.org/dc/elements/1.1/"
   xmlns:cc="http://creativecommons.org/ns#"
   xmlns:rdf="http://www.w3.org/1999/02/22-rdf-syntax-ns#"
   xmlns:svg="http://www.w3.org/2000/svg"
   xmlns="http://www.w3.org/2000/svg"
   xmlns:sodipodi="http://sodipodi.sourceforge.net/DTD/sodipodi-0.dtd"
   xmlns:inkscape="http://www.inkscape.org/namespaces/inkscape"
   sodipodi:docname="oli_logo-32x32.svg"
   inkscape:version="1.0.2 (e86c870879, 2021-01-15)"
   id="svg6"
   version="1.1"
   viewBox="0 0 8.4666663 8.4666663"
   height="32"
   width="32">
  <metadata
     id="metadata15">
    <rdf:RDF>
      <cc:Work
         rdf:about="">
        <dc:format>image/svg+xml</dc:format>
        <dc:type
           rdf:resource="http://purl.org/dc/dcmitype/StillImage" />
        <dc:title></dc:title>
      </cc:Work>
    </rdf:RDF>
  </metadata>
  <defs
     id="defs2" />
  <sodipodi:namedview
     inkscape:window-maximized="1"
     inkscape:window-y="26"
     inkscape:window-x="0"
     inkscape:window-height="1054"
     inkscape:window-width="1920"
     fit-margin-bottom="5"
     fit-margin-right="5"
     fit-margin-left="5"
     lock-margins="true"
     fit-margin-top="5"
     inkscape:object-paths="false"
     inkscape:snap-bbox="true"
     inkscape:guide-bbox="true"
     showguides="false"
     showgrid="false"
     inkscape:current-layer="layer1"
     inkscape:document-units="px"
     inkscape:cy="19.61318"
     inkscape:cx="52.035787"
     inkscape:zoom="9.6445054"
     inkscape:pageshadow="2"
     inkscape:pageopacity="0.0"
     borderopacity="1.0"
     bordercolor="#666666"
     pagecolor="#ffffff"
     id="base"
     inkscape:document-rotation="0"
     units="px">
    <sodipodi:guide
       id="guide922"
       orientation="1,0"
       position="258.65348,-48.308319" />
    <sodipodi:guide
       id="guide924"
       orientation="1,0"
       position="246.79488,-32.910565" />
    <sodipodi:guide
       id="guide926"
       orientation="0,-1"
       position="258.89049,-35.381696" />
  </sodipodi:namedview>
  <g
     transform="translate(-51.72947,-132.42388)"
     id="layer1"
     inkscape:groupmode="layer"
     inkscape:label="Capa 1">
    <g
       id="g23"
       transform="translate(0.3619311,0.28721667)">
      <rect
         style="opacity:0.990194;fill:#ff0000;fill-opacity:1;stroke:none;stroke-width:0.316784;stroke-miterlimit:4;stroke-dasharray:none;stroke-opacity:1;paint-order:stroke markers fill"
         id="rect918"
         width="3.7568133"
         height="0.32582557"
         x="-139.07742"
         y="57.921116"
         transform="rotate(-90)" />
      <g
         transform="matrix(0.08116412,0,0,0.08116412,32.729155,111.15752)"
         style="opacity:0.990194"
         id="g910">
        <path
           sodipodi:nodetypes="cssssccsssscc"
           id="path912"
           d="m 310.38297,277.75239 c 9.15755,7.99312 15.03695,19.75499 15.03695,32.88238 0,24.11565 -19.50739,43.62304 -43.62305,43.62304 -24.11565,0 -43.62304,-19.50739 -43.62304,-43.62304 0,-24.11565 19.5074,-43.62305 43.62304,-43.62305 5.92737,0 11.57635,1.17849 16.72569,3.31423 l 0.002,-4.1831 c -5.20444,-1.96062 -10.84204,-3.03348 -16.72768,-3.03348 -26.22498,0 -47.52733,21.30041 -47.52734,47.5254 0,26.22498 21.30236,47.52734 47.52734,47.52734 26.225,0 47.52541,-21.30235 47.5254,-47.52734 -10e-6,-15.39231 -7.4368,-29.08815 -18.8013,-37.77645 z"
           style="color:#000000;fill:#000000;stroke-width:3.903;paint-order:stroke markers fill" />
        <path
           id="path914"
           d="m 327.3717,310.63522 a 45.574947,45.574947 0 0 1 -45.57495,45.57495 45.574947,45.574947 0 0 1 -45.57494,-45.57495 45.574947,45.574947 0 0 1 45.57494,-45.57494 45.574947,45.574947 0 0 1 45.57495,45.57494 z"
           style="color:#000000;fill:none;fill-opacity:0.999724;stroke-width:3.903;paint-order:stroke markers fill" />
      </g>
      <path
         sodipodi:nodetypes="ccccc"
         d="m 56.632637,139.75824 v -7.10581 c 0.121164,0.0333 0.209604,0.0641 0.325825,0.10383 v 6.88529 c -0.0911,0.0363 -0.180892,0.0731 -0.325825,0.11669 z"
         style="opacity:0.990194;fill:#ff0000;fill-opacity:1;stroke:none;stroke-width:0.316784;stroke-miterlimit:4;stroke-dasharray:none;stroke-opacity:1;paint-order:stroke markers fill"
         id="rect916" />
      <path
         sodipodi:nodetypes="ccccc"
         d="m 57.921114,134.353 v -1.04918 c 0.04202,0.001 0.291849,0.23581 0.325826,0.26979 v 0.77939 z"
         style="opacity:0.990194;fill:#ff0000;fill-opacity:1;stroke:none;stroke-width:0.316784;stroke-miterlimit:4;stroke-dasharray:none;stroke-opacity:1;paint-order:stroke markers fill"
         id="rect920" />
    </g>
  </g>
</svg>
